<svg xmlns="http://www.w3.org/2000/svg" width="62" height="62" viewBox="0 0 62 62" fill="none"> <path d="M4.74203 16.4161L23.6958 29.0429L0.967987 30.501V31.499L23.6958 32.9571L4.74203 45.5839L5.241 46.4481L25.653 36.347L15.5519 56.759L16.4161 57.258L29.0429 38.3042L30.501 61.032H31.499L32.9571 38.3042L45.5839 57.258L46.4481 56.759L36.347 36.347L56.759 46.4481L57.258 45.5839L38.3042 32.9571L61.032 31.499V30.501L38.3042 29.0429L57.258 16.4161L56.759 15.5519L36.347 25.653L46.4481 5.241L45.5839 4.74203L32.9571 23.6958L31.499 0.967987H30.501L29.0429 23.6958L16.4161 4.74203L15.5519 5.241L25.653 25.653L5.241 15.5519L4.74203 16.4161Z" stroke="#B2B2B2"/> </svg>